<svg xmlns:xlink="http://www.w3.org/1999/xlink" width="756" xmlns="http://www.w3.org/2000/svg" height="706" xmlns:ev="http://www.w3.org/2001/xml-events" viewBox="0 0 756 706"><defs/><g transform="translate(5.5,5.5)" id="page1"><rect x="0" fill="none" width="746" height="696" y="0"/><g transform="translate(75.194704,126.585294)" id="shape1"><path stroke-linecap="round" fill-rule="evenodd" fill="#baddf7" stroke-width="1.8897638320922852" d="M.0,.0L90.7,.0L90.7,51.0L.0,51.0L.0,.0z" stroke="#257fd8"/><text xml:space="preserve" style="fill:#262626;font-family:微软雅黑,PingFang SC,Mircrosoft YaHei,Arial;font-size:11.51pt"><tspan x="21.4" y="23.0" style="font-size:9.21pt">用户访问</tspan><tspan x="21.4" y="38.0" style="font-family:Calibri,PingFang SC,Mircrosoft YaHei,Arial;font-size:9.21pt">AliyunDK</tspan></text></g><g transform="translate(75.194704,217.293956)" id="shape2"><path stroke-linecap="round" fill-rule="evenodd" fill="#baddf7" stroke-width="1.8897638320922852" d="M.0,.0L90.7,.0L90.7,51.0L.0,51.0L.0,.0z" stroke="#257fd8"/><text xml:space="preserve" style="fill:#262626;font-family:微软雅黑,PingFang SC,Mircrosoft YaHei,Arial;font-size:11.51pt"><tspan x="16.4" y="30.0" style="font-size:9.21pt">获取用户</tspan><tspan x="64.4" style="font-family:Calibri,PingFang SC,Mircrosoft YaHei,Arial;font-size:9.21pt">IP</tspan></text></g><g transform="translate(39.048679,313.671908)" id="shape3"><path stroke-linecap="round" fill-rule="evenodd" fill="#baddf7" stroke-width="1.8897638320922852" d="M.0,52.3L81.5,.0L163.0,52.3L81.5,104.6L.0,52.3L.0,52.3z" stroke="#257fd8"/><text xml:space="preserve" style="fill:#262626;font-family:微软雅黑,PingFang SC,Mircrosoft YaHei,Arial;font-size:11.51pt"><tspan x="13.0" y="56.8" style="font-family:Calibri,PingFang SC,Mircrosoft YaHei,Arial;font-size:9.21pt">Redis</tspan><tspan x="44.0" style="font-size:9.21pt">中是否存在该</tspan><tspan x="116.0" style="font-family:Calibri,PingFang SC,Mircrosoft YaHei,Arial;font-size:9.21pt">IP</tspan><tspan x="126.0" style="font-size:9.21pt">记录</tspan></text></g><g transform="translate(75.194704,506.133858)" id="shape4"><path stroke-linecap="round" fill-rule="evenodd" fill="#baddf7" stroke-width="1.8897638320922852" d="M.0,.0L90.7,.0L90.7,51.0L.0,51.0L.0,.0z" stroke="#257fd8"/><text xml:space="preserve" style="fill:#262626;font-family:微软雅黑,PingFang SC,Mircrosoft YaHei,Arial;font-size:11.51pt"><tspan x="15.4" y="21.5" style="font-size:9.21pt">向用户返回</tspan><tspan x="15.4" y="38.5" style="font-family:Calibri,PingFang SC,Mircrosoft YaHei,Arial;font-size:9.21pt">Linked</tspan><tspan x="51.4" style="font-size:9.21pt">页面</tspan></text></g><g transform="translate(240.085180,117.755892)" id="shape5"><path stroke-linecap="round" fill-rule="evenodd" fill="#baddf7" stroke-width="1.8897638320922852" d="M.0,.0L153.1,.0L153.1,59.9L.0,59.9L.0,.0z" stroke="#257fd8"/><text xml:space="preserve" style="fill:#262626;font-family:微软雅黑,PingFang SC,Mircrosoft YaHei,Arial;font-size:11.51pt"><tspan x="14.0" y="25.9" style="font-size:9.21pt">往</tspan><tspan x="26.0" style="font-family:Calibri,PingFang SC,Mircrosoft YaHei,Arial;font-size:9.21pt">Redis</tspan><tspan x="57.0" style="font-size:9.21pt">内写入该</tspan><tspan x="105.0" style="font-family:Calibri,PingFang SC,Mircrosoft YaHei,Arial;font-size:9.21pt">IP</tspan><tspan x="115.0" style="font-size:9.21pt">记录</tspan><tspan x="14.5" y="42.9" style="font-family:Calibri,PingFang SC,Mircrosoft YaHei,Arial;font-size:9.21pt">ttl=expire，</tspan><tspan x="78.5" style="font-size:9.21pt">并压入队列</tspan></text></g><g transform="translate(239.140298,204.065609)" id="shape6"><path stroke-linecap="round" fill-rule="evenodd" fill="#baddf7" stroke-width="1.8897638320922852" d="M.0,45.7L77.5,.0L155.0,45.7L77.5,91.4L.0,45.7L.0,45.7z" stroke="#257fd8"/><text xml:space="preserve" style="fill:#262626;font-family:微软雅黑,PingFang SC,Mircrosoft YaHei,Arial;font-size:11.51pt"><tspan x="18.5" y="50.2" style="font-size:9.21pt">队列长度是否超出</tspan><tspan x="114.5" style="font-family:Calibri,PingFang SC,Mircrosoft YaHei,Arial;font-size:9.21pt">Max</tspan></text></g><g transform="translate(250.478880,337.944880)" id="shape7"><path stroke-linecap="round" fill-rule="evenodd" fill="#baddf7" stroke-width="1.8897638320922852" d="M.0,.0L132.3,.0L132.3,51.0L.0,51.0L.0,.0z" stroke="#257fd8"/><text xml:space="preserve" style="fill:#262626;font-family:微软雅黑,PingFang SC,Mircrosoft YaHei,Arial;font-size:11.51pt"><tspan x="15.1" y="21.5" style="font-size:9.21pt">向</tspan><tspan x="27.1" style="font-family:Calibri,PingFang SC,Mircrosoft YaHei,Arial;font-size:9.21pt">RabbitMQ</tspan><tspan x="81.1" style="font-size:9.21pt">提交一</tspan><tspan x="24.1" y="38.5" style="font-size:9.21pt">个立即撤权请求</tspan></text></g><g transform="translate(198.510377,431.488193)" id="shape8"><path stroke-linecap="round" fill-rule="evenodd" fill="#baddf7" stroke-width="1.8897638320922852" d="M.0,.0L236.2,.0L236.2,52.0L.0,52.0L.0,.0z" stroke="#257fd8"/><text xml:space="preserve" style="fill:#262626;font-family:微软雅黑,PingFang SC,Mircrosoft YaHei,Arial;font-size:11.51pt"><tspan x="19.1" y="22.0" style="font-family:Calibri,PingFang SC,Mircrosoft YaHei,Arial;font-size:9.21pt">1. </tspan><tspan x="31.1" style="font-size:9.21pt">向</tspan><tspan x="43.1" style="font-family:Calibri,PingFang SC,Mircrosoft YaHei,Arial;font-size:9.21pt">RabbitMQ</tspan><tspan x="97.1" style="font-size:9.21pt">提交一个立即授权请求</tspan><tspan x="20.6" y="39.0" style="font-family:Calibri,PingFang SC,Mircrosoft YaHei,Arial;font-size:9.21pt">2.</tspan><tspan x="29.6" style="font-size:9.21pt">向</tspan><tspan x="41.6" style="font-family:Calibri,PingFang SC,Mircrosoft YaHei,Arial;font-size:9.21pt">RabbitMQ</tspan><tspan x="95.6" style="font-size:9.21pt">提交一个延迟撤权请求</tspan></text></g><g transform="translate(263.707227,506.133858)" id="shape9"><path stroke-linecap="round" fill-rule="evenodd" fill="#baddf7" stroke-width="1.8897638320922852" d="M.0,.0L105.8,.0L105.8,51.0L.0,51.0L.0,.0z" stroke="#257fd8"/><text xml:space="preserve" style="fill:#262626;font-family:微软雅黑,PingFang SC,Mircrosoft YaHei,Arial;font-size:11.51pt"><tspan x="22.9" y="21.5" style="font-size:9.21pt">向用户返回</tspan><tspan x="15.4" y="38.5" style="font-family:Calibri,PingFang SC,Mircrosoft YaHei,Arial;font-size:9.21pt">Approved</tspan><tspan x="66.4" style="font-size:9.21pt">页面</tspan></text></g><g transform="translate(60.780962,39.656160)" id="shape10"><path stroke-linecap="round" fill-rule="evenodd" fill="#baddf7" stroke-width="1.8897638320922852" d="M15.7,.0L103.8,.0C124.8,.0,124.8,47.2,103.8,47.2L15.7,47.2C-5.2,47.2,-5.2,.0,15.7,.0L15.7,.0z" stroke="#257fd8"/><text xml:space="preserve" style="fill:#257fd8;font-family:微软雅黑,PingFang SC,Mircrosoft YaHei,Arial;font-size:11.51pt"><tspan x="19.8" y="19.6" style="font-family:Calibri,PingFang SC,Mircrosoft YaHei,Arial;font-size:9.21pt">WebAPP</tspan><tspan x="63.8" style="font-size:9.21pt">单请求</tspan><tspan x="47.8" y="36.6" style="font-size:9.21pt">开始</tspan></text></g><g transform="translate(73.304940,606.291339)" id="shape11"><path stroke-linecap="round" fill-rule="evenodd" fill="#baddf7" stroke-width="1.8897638320922852" d="M15.7,.0L78.7,.0C99.7,.0,99.7,47.2,78.7,47.2L15.7,47.2C-5.2,47.2,-5.2,.0,15.7,.0L15.7,.0z" stroke="#257fd8"/><text xml:space="preserve" style="fill:#257fd8;font-family:微软雅黑,PingFang SC,Mircrosoft YaHei,Arial;font-size:11.51pt"><tspan x="35.2" y="28.1" style="font-size:9.21pt">结束</tspan></text></g><g transform="translate(538.667857,39.656160)" id="shape12"><path stroke-linecap="round" fill-rule="evenodd" fill="#baddf7" stroke-width="1.8897638320922852" d="M15.7,.0L78.7,.0C99.7,.0,99.7,47.2,78.7,47.2L15.7,47.2C-5.2,47.2,-5.2,.0,15.7,.0L15.7,.0z" stroke="#257fd8"/><text xml:space="preserve" style="fill:#257fd8;font-family:Calibri,PingFang SC,Mircrosoft YaHei,Arial;font-size:11.51pt"><tspan x="23.7" y="19.1" style="font-size:9.21pt">BlueBird</tspan><tspan x="35.2" y="35.1" style="font-family:微软雅黑,PingFang SC,Mircrosoft YaHei,Arial;font-size:9.21pt">开始</tspan></text></g><g transform="translate(532.998565,117.755892)" id="shape13"><path stroke-linecap="round" fill-rule="evenodd" fill="#baddf7" stroke-width="1.8897638320922852" d="M.0,.0L105.8,.0L105.8,51.0L.0,51.0L.0,.0z" stroke="#257fd8"/><text xml:space="preserve" style="fill:#262626;font-family:微软雅黑,PingFang SC,Mircrosoft YaHei,Arial;font-size:11.51pt"><tspan x="25.4" y="21.5" style="font-size:9.21pt">连接</tspan><tspan x="49.4" style="font-family:Calibri,PingFang SC,Mircrosoft YaHei,Arial;font-size:9.21pt">Redis</tspan><tspan x="13.9" y="38.5" style="font-size:9.21pt">连接</tspan><tspan x="37.9" style="font-family:Calibri,PingFang SC,Mircrosoft YaHei,Arial;font-size:9.21pt">RabbitMQ</tspan></text></g><g transform="translate(532.998565,204.065609)" id="shape14"><path stroke-linecap="round" fill-rule="evenodd" fill="#baddf7" stroke-width="1.8897638320922852" d="M.0,.0L105.8,.0L105.8,51.0L.0,51.0L.0,.0z" stroke="#257fd8"/><text xml:space="preserve" style="fill:#262626;font-family:微软雅黑,PingFang SC,Mircrosoft YaHei,Arial;font-size:11.51pt"><tspan x="14.4" y="30.0" style="font-size:9.21pt">消费</tspan><tspan x="38.4" style="font-family:Calibri,PingFang SC,Mircrosoft YaHei,Arial;font-size:9.21pt">Dead</tspan><tspan x="67.4" style="font-size:9.21pt">队列</tspan></text></g><g transform="translate(538.195416,285.976376)" id="shape15"><path stroke-linecap="round" fill-rule="evenodd" fill="#baddf7" stroke-width="1.8897638320922852" d="M.0,33.1L47.7,.0L95.4,33.1L47.7,66.1L.0,33.1L.0,33.1z" stroke="#257fd8"/><text xml:space="preserve" style="fill:#262626;font-family:微软雅黑,PingFang SC,Mircrosoft YaHei,Arial;font-size:11.51pt"><tspan x="11.7" y="37.6" style="font-size:9.21pt">判断消息类型</tspan></text></g><g transform="translate(464.022188,388.968502)" id="shape16"><path stroke-linecap="round" fill-rule="evenodd" fill="#baddf7" stroke-width="1.8897638320922852" d="M.0,.0L101.1,.0L101.1,51.0L.0,51.0L.0,.0z" stroke="#257fd8"/><text xml:space="preserve" style="fill:#262626;font-family:微软雅黑,PingFang SC,Mircrosoft YaHei,Arial;font-size:11.51pt"><tspan x="12.1" y="21.5" style="font-size:9.21pt">向阿里云</tspan><tspan x="60.1" style="font-family:Calibri,PingFang SC,Mircrosoft YaHei,Arial;font-size:9.21pt">API</tspan><tspan x="77.1" style="font-size:9.21pt">请</tspan><tspan x="20.6" y="38.5" style="font-size:9.21pt">求添加规则</tspan></text></g><g transform="translate(605.754471,388.968502)" id="shape17"><path stroke-linecap="round" fill-rule="evenodd" fill="#baddf7" stroke-width="1.8897638320922852" d="M.0,.0L101.1,.0L101.1,51.0L.0,51.0L.0,.0z" stroke="#257fd8"/><text xml:space="preserve" style="fill:#262626;font-family:微软雅黑,PingFang SC,Mircrosoft YaHei,Arial;font-size:11.51pt"><tspan x="12.1" y="21.5" style="font-size:9.21pt">向阿里云</tspan><tspan x="60.1" style="font-family:Calibri,PingFang SC,Mircrosoft YaHei,Arial;font-size:9.21pt">API</tspan><tspan x="77.1" style="font-size:9.21pt">请</tspan><tspan x="20.6" y="38.5" style="font-size:9.21pt">求删除规则</tspan></text></g><g transform="translate(610.951321,476.842518)" id="shape18"><path stroke-linecap="round" fill-rule="evenodd" fill="#baddf7" stroke-width="1.8897638320922852" d="M.0,.0L90.7,.0L90.7,51.0L.0,51.0L.0,.0z" stroke="#257fd8"/><text xml:space="preserve" style="fill:#262626;font-family:微软雅黑,PingFang SC,Mircrosoft YaHei,Arial;font-size:11.51pt"><tspan x="11.9" y="21.5" style="font-size:9.21pt">删除</tspan><tspan x="35.9" style="font-family:Calibri,PingFang SC,Mircrosoft YaHei,Arial;font-size:9.21pt">Redis</tspan><tspan x="66.9" style="font-size:9.21pt">队</tspan><tspan x="15.4" y="38.5" style="font-size:9.21pt">列中的成员</tspan></text></g><g transform="translate(538.667857,610.070866)" id="shape19"><path stroke-linecap="round" fill-rule="evenodd" fill="#baddf7" stroke-width="1.8897638320922852" d="M15.7,.0L78.7,.0C99.7,.0,99.7,47.2,78.7,47.2L15.7,47.2C-5.2,47.2,-5.2,.0,15.7,.0L15.7,.0z" stroke="#257fd8"/><text xml:space="preserve" style="fill:#257fd8;font-family:微软雅黑,PingFang SC,Mircrosoft YaHei,Arial;font-size:11.51pt"><tspan x="35.2" y="28.1" style="font-size:9.21pt">结束</tspan></text></g><g transform="translate(120.549035,177.608916)" id="shape20"><path stroke-linecap="round" fill="none" stroke-width="1.4173228740692139" d="M.0,.0L.0,19.8L.0,19.8L.0,32.5" stroke="#000000"/><path stroke-linecap="round" fill="#000000" stroke-width="1" d="M3.6,32.5L.0,39.7L-3.6,32.5L3.6,32.5" stroke="#000000"/></g><g transform="translate(120.549035,268.317578)" id="shape21"><path stroke-linecap="round" fill="none" stroke-width="1.4173228740692139" d="M.0,.0L.0,38.2" stroke="#000000"/><path stroke-linecap="round" fill="#000000" stroke-width="1" d="M3.6,38.2L.0,45.4L-3.6,38.2L3.6,38.2" stroke="#000000"/></g><g transform="translate(120.549524,418.259835)" id="shape22"><path stroke-linecap="round" fill="none" stroke-width="1.4173228740692139" d="M.0,.0L.0,80.7" stroke="#000000"/><path stroke-linecap="round" fill="#000000" stroke-width="1" d="M3.6,80.7L.0,87.9L-3.6,80.7L3.6,80.7" stroke="#000000"/><rect x="-9.0" fill="#ffffff" width="18.0" height="14.0" y="32.4"/><text xml:space="preserve" style="fill:#f99d4b;font-family:Calibri,PingFang SC,Mircrosoft YaHei,Arial;font-size:11.51pt"><tspan x="-9.0" y="43.4" style="font-size:9.21pt">Yes</tspan></text></g><g transform="translate(202.049228,365.965558)" id="shape23"><path stroke-linecap="round" fill="none" stroke-width="1.4173228740692139" d="M.0,.0L19.0,.0L19.0,-222.7L30.9,-222.7" stroke="#000000"/><path stroke-linecap="round" fill="#000000" stroke-width="1" d="M30.9,-226.3L38.0,-222.7L30.9,-219.1L30.9,-226.3" stroke="#000000"/><rect x="11.5" fill="#ffffff" width="15.0" height="14.0" y="-117.7"/><text xml:space="preserve" style="fill:#f99d4b;font-family:Calibri,PingFang SC,Mircrosoft YaHei,Arial;font-size:11.51pt"><tspan x="11.5" y="-106.7" style="font-size:9.21pt">No</tspan></text></g><g transform="translate(316.620613,177.608497)" id="shape24"><path stroke-linecap="round" fill="none" stroke-width="1.4173228740692139" d="M.0,.0L.0,13.2L-0.9,13.2L-0.9,19.3" stroke="#000000"/><path stroke-linecap="round" fill="#000000" stroke-width="1" d="M2.6,19.3L-0.9,26.5L-4.5,19.3L2.6,19.3" stroke="#000000"/></g><g transform="translate(316.620613,295.425190)" id="shape25"><path stroke-linecap="round" fill="none" stroke-width="1.4173228740692139" d="M.0,.0L.0,21.3L.0,21.3L.0,35.4" stroke="#000000"/><path stroke-linecap="round" fill="#000000" stroke-width="1" d="M3.6,35.4L.0,42.5L-3.6,35.4L3.6,35.4" stroke="#000000"/><rect x="-9.0" fill="#ffffff" width="18.0" height="14.0" y="12.9"/><text xml:space="preserve" style="fill:#f99d4b;font-family:Calibri,PingFang SC,Mircrosoft YaHei,Arial;font-size:11.51pt"><tspan x="-9.0" y="23.9" style="font-size:9.21pt">Yes</tspan></text></g><g transform="translate(316.620613,388.968502)" id="shape26"><path stroke-linecap="round" fill="none" stroke-width="1.4173228740692139" d="M.0,.0L.0,21.3L.0,21.3L.0,35.4" stroke="#000000"/><path stroke-linecap="round" fill="#000000" stroke-width="1" d="M3.6,35.4L.0,42.5L-3.6,35.4L3.6,35.4" stroke="#000000"/></g><g transform="translate(394.100928,249.744943)" id="shape27"><path stroke-linecap="round" fill="none" stroke-width="1.4173228740692139" d="M.0,.0L28.7,.0L28.7,152.7L-77.5,152.7L-77.5,174.6" stroke="#000000"/><path stroke-linecap="round" fill="#000000" stroke-width="1" d="M-73.9,174.6L-77.5,181.7L-81.1,174.6L-73.9,174.6" stroke="#000000"/><rect x="21.2" fill="#ffffff" width="15.0" height="14.0" y="73.7"/><text xml:space="preserve" style="fill:#f99d4b;font-family:Calibri,PingFang SC,Mircrosoft YaHei,Arial;font-size:11.51pt"><tspan x="21.2" y="84.7" style="font-size:9.21pt">No</tspan></text></g><g transform="translate(316.620613,483.456697)" id="shape28"><path stroke-linecap="round" fill="none" stroke-width="1.4173228740692139" d="M.0,.0L.0,11.3L.0,11.3L.0,15.5" stroke="#000000"/><path stroke-linecap="round" fill="#000000" stroke-width="1" d="M3.6,15.5L.0,22.7L-3.6,15.5L3.6,15.5" stroke="#000000"/></g><g transform="translate(120.549035,86.900255)" id="shape29"><path stroke-linecap="round" fill="none" stroke-width="1.4173228740692139" d="M.0,.0L.0,19.8L.0,19.8L.0,32.5" stroke="#000000"/><path stroke-linecap="round" fill="#000000" stroke-width="1" d="M3.6,32.5L.0,39.7L-3.6,32.5L3.6,32.5" stroke="#000000"/></g><g transform="translate(120.549035,557.157480)" id="shape30"><path stroke-linecap="round" fill="none" stroke-width="1.4173228740692139" d="M.0,.0L.0,24.6L.0,24.6L.0,42.0" stroke="#000000"/><path stroke-linecap="round" fill="#000000" stroke-width="1" d="M3.6,42.0L.0,49.1L-3.6,42.0L3.6,42.0" stroke="#000000"/></g><g transform="translate(316.620613,557.157480)" id="shape31"><path stroke-linecap="round" fill="none" stroke-width="1.4173228740692139" d="M.0,.0L.0,24.6L-196.1,24.6L-196.1,42.0" stroke="#000000"/><path stroke-linecap="round" fill="#000000" stroke-width="1" d="M-192.5,42.0L-196.1,49.1L-199.6,42.0L-192.5,42.0" stroke="#000000"/></g><g transform="translate(585.911951,86.900255)" id="shape32"><path stroke-linecap="round" fill="none" stroke-width="1.4173228740692139" d="M.0,.0L.0,15.4L.0,15.4L.0,23.7" stroke="#000000"/><path stroke-linecap="round" fill="#000000" stroke-width="1" d="M3.6,23.7L.0,30.9L-3.6,23.7L3.6,23.7" stroke="#000000"/></g><g transform="translate(585.911951,168.779514)" id="shape33"><path stroke-linecap="round" fill="none" stroke-width="1.4173228740692139" d="M.0,.0L.0,17.6L.0,17.6L.0,28.1" stroke="#000000"/><path stroke-linecap="round" fill="#000000" stroke-width="1" d="M3.6,28.1L.0,35.3L-3.6,28.1L3.6,28.1" stroke="#000000"/></g><g transform="translate(585.911951,255.089231)" id="shape34"><path stroke-linecap="round" fill="none" stroke-width="1.4173228740692139" d="M.0,.0L.0,15.4L.0,15.4L.0,23.7" stroke="#000000"/><path stroke-linecap="round" fill="#000000" stroke-width="1" d="M3.6,23.7L.0,30.9L-3.6,23.7L3.6,23.7" stroke="#000000"/></g><g transform="translate(538.195416,319.047242)" id="shape35"><path stroke-linecap="round" fill="none" stroke-width="1.4173228740692139" d="M.0,.0L-23.6,.0L-23.6,62.8" stroke="#000000"/><path stroke-linecap="round" fill="#000000" stroke-width="1" d="M-20.1,62.8L-23.6,69.9L-27.2,62.8L-20.1,62.8" stroke="#000000"/><rect x="-34.1" fill="#ffffff" width="21.0" height="14.0" y="16.4"/><text xml:space="preserve" style="fill:#f99d4b;font-family:Calibri,PingFang SC,Mircrosoft YaHei,Arial;font-size:11.51pt"><tspan x="-34.1" y="27.4" style="font-size:9.21pt">add</tspan></text></g><g transform="translate(633.628487,319.047242)" id="shape36"><path stroke-linecap="round" fill="none" stroke-width="1.4173228740692139" d="M.0,.0L22.7,.0L22.7,62.8" stroke="#000000"/><path stroke-linecap="round" fill="#000000" stroke-width="1" d="M26.2,62.8L22.7,69.9L19.1,62.8L26.2,62.8" stroke="#000000"/><rect x="13.7" fill="#ffffff" width="18.0" height="14.0" y="16.4"/><text xml:space="preserve" style="fill:#f99d4b;font-family:Calibri,PingFang SC,Mircrosoft YaHei,Arial;font-size:11.51pt"><tspan x="13.7" y="27.4" style="font-size:9.21pt">del</tspan></text></g><g transform="translate(656.305652,439.992124)" id="shape37"><path stroke-linecap="round" fill="none" stroke-width="1.4173228740692139" d="M.0,.0L.0,18.4L.0,18.4L.0,29.7" stroke="#000000"/><path stroke-linecap="round" fill="#000000" stroke-width="1" d="M3.6,29.7L.0,36.9L-3.6,29.7L3.6,29.7" stroke="#000000"/></g><g transform="translate(514.573369,439.992124)" id="shape38"><path stroke-linecap="round" fill="none" stroke-width="1.4173228740692139" d="M.0,.0L.0,129.3L71.3,129.3L71.3,162.9" stroke="#000000"/><path stroke-linecap="round" fill="#000000" stroke-width="1" d="M74.9,162.9L71.3,170.1L67.8,162.9L74.9,162.9" stroke="#000000"/></g><g transform="translate(656.305652,527.866140)" id="shape39"><path stroke-linecap="round" fill="none" stroke-width="1.4173228740692139" d="M.0,.0L.0,41.1L-70.4,41.1L-70.4,75.1" stroke="#000000"/><path stroke-linecap="round" fill="#000000" stroke-width="1" d="M-66.8,75.1L-70.4,82.2L-74.0,75.1L-66.8,75.1" stroke="#000000"/></g></g></svg>