<svg xmlns="http://www.w3.org/2000/svg" height="706" width="756" viewBox="0 0 756 706" xmlns:xlink="http://www.w3.org/1999/xlink" xmlns:ev="http://www.w3.org/2001/xml-events"><defs/><g transform="translate(5.5,5.5)" id="page1"><rect height="696" width="746" fill="#ffffff" x="0" y="0"/><g transform="translate(75.194700,126.585200)" id="shape1"><path stroke-width="1.8897600173950195" fill-rule="evenodd" fill="#baddf7" d="M.0,.0L90.7,.0L90.7,51.0L.0,51.0L.0,.0z" stroke="#257fd8" stroke-linecap="round"/><text style="fill:#262626;font-family:微软雅黑,PingFang SC,Mircrosoft YaHei,Arial;font-size:11.51pt" xml:space="preserve"><tspan style="font-size:9.21pt" x="21.4" y="23.0">用户访问</tspan><tspan style="font-family:Calibri,PingFang SC,Mircrosoft YaHei,Arial;font-size:9.21pt" x="21.4" y="38.0">AliyunDK</tspan></text></g><g transform="translate(75.194700,217.294200)" id="shape2"><path stroke-width="1.8897600173950195" fill-rule="evenodd" fill="#baddf7" d="M.0,.0L90.7,.0L90.7,51.0L.0,51.0L.0,.0z" stroke="#257fd8" stroke-linecap="round"/><text style="fill:#262626;font-family:微软雅黑,PingFang SC,Mircrosoft YaHei,Arial;font-size:11.51pt" xml:space="preserve"><tspan style="font-size:9.21pt" x="16.4" y="30.0">获取用户</tspan><tspan style="font-family:Calibri,PingFang SC,Mircrosoft YaHei,Arial;font-size:9.21pt" x="64.4">IP</tspan></text></g><g transform="translate(39.048600,313.672000)" id="shape3"><path stroke-width="1.8897600173950195" fill-rule="evenodd" fill="#baddf7" d="M.0,52.3L81.5,.0L163.0,52.3L81.5,104.6L.0,52.3L.0,52.3z" stroke="#257fd8" stroke-linecap="round"/><text style="fill:#262626;font-family:Calibri,PingFang SC,Mircrosoft YaHei,Arial;font-size:11.51pt" xml:space="preserve"><tspan style="font-size:9.21pt" x="13.0" y="56.8">Redis</tspan><tspan style="font-family:微软雅黑,PingFang SC,Mircrosoft YaHei,Arial;font-size:9.21pt" x="44.0">中是否存在该</tspan><tspan style="font-size:9.21pt" x="116.0">IP</tspan><tspan style="font-family:微软雅黑,PingFang SC,Mircrosoft YaHei,Arial;font-size:9.21pt" x="126.0">记录</tspan></text></g><g transform="translate(75.194700,506.134200)" id="shape4"><path stroke-width="1.8897600173950195" fill-rule="evenodd" fill="#baddf7" d="M.0,.0L90.7,.0L90.7,51.0L.0,51.0L.0,.0z" stroke="#257fd8" stroke-linecap="round"/><text style="fill:#262626;font-family:微软雅黑,PingFang SC,Mircrosoft YaHei,Arial;font-size:11.51pt" xml:space="preserve"><tspan style="font-size:9.21pt" x="15.4" y="21.5">向用户返回</tspan><tspan style="font-family:Calibri,PingFang SC,Mircrosoft YaHei,Arial;font-size:9.21pt" x="15.4" y="38.5">Linked</tspan><tspan style="font-size:9.21pt" x="51.4">页面</tspan></text></g><g transform="translate(240.085600,117.755500)" id="shape5"><path stroke-width="1.8897600173950195" fill-rule="evenodd" fill="#baddf7" d="M.0,.0L153.1,.0L153.1,59.9L.0,59.9L.0,.0z" stroke="#257fd8" stroke-linecap="round"/><text style="fill:#262626;font-family:微软雅黑,PingFang SC,Mircrosoft YaHei,Arial;font-size:11.51pt" xml:space="preserve"><tspan style="font-size:9.21pt" x="14.0" y="25.9">往</tspan><tspan style="font-family:Calibri,PingFang SC,Mircrosoft YaHei,Arial;font-size:9.21pt" x="26.0">Redis</tspan><tspan style="font-size:9.21pt" x="57.0">内写入该</tspan><tspan style="font-family:Calibri,PingFang SC,Mircrosoft YaHei,Arial;font-size:9.21pt" x="105.0">IP</tspan><tspan style="font-size:9.21pt" x="115.0">记录</tspan><tspan style="font-family:Calibri,PingFang SC,Mircrosoft YaHei,Arial;font-size:9.21pt" x="14.5" y="42.9">ttl=expire，</tspan><tspan style="font-size:9.21pt" x="78.5">并压入队列</tspan></text></g><g transform="translate(239.140700,204.065200)" id="shape6"><path stroke-width="1.8897600173950195" fill-rule="evenodd" fill="#baddf7" d="M.0,45.7L77.5,.0L155.0,45.7L77.5,91.4L.0,45.7L.0,45.7z" stroke="#257fd8" stroke-linecap="round"/><text style="fill:#262626;font-family:微软雅黑,PingFang SC,Mircrosoft YaHei,Arial;font-size:11.51pt" xml:space="preserve"><tspan style="font-size:9.21pt" x="18.5" y="50.2">队列长度是否超出</tspan><tspan style="font-family:Calibri,PingFang SC,Mircrosoft YaHei,Arial;font-size:9.21pt" x="114.5">Max</tspan></text></g><g transform="translate(250.479300,337.945200)" id="shape7"><path stroke-width="1.8897600173950195" fill-rule="evenodd" fill="#baddf7" d="M.0,.0L132.3,.0L132.3,51.0L.0,51.0L.0,.0z" stroke="#257fd8" stroke-linecap="round"/><text style="fill:#262626;font-family:微软雅黑,PingFang SC,Mircrosoft YaHei,Arial;font-size:11.51pt" xml:space="preserve"><tspan style="font-size:9.21pt" x="15.1" y="21.5">向</tspan><tspan style="font-family:Calibri,PingFang SC,Mircrosoft YaHei,Arial;font-size:9.21pt" x="27.1">RabbitMQ</tspan><tspan style="font-size:9.21pt" x="81.1">提交一</tspan><tspan style="font-size:9.21pt" x="24.1" y="38.5">个立即撤权请求</tspan></text></g><g transform="translate(198.511000,431.487700)" id="shape8"><path stroke-width="1.8897600173950195" fill-rule="evenodd" fill="#baddf7" d="M.0,.0L236.2,.0L236.2,52.0L.0,52.0L.0,.0z" stroke="#257fd8" stroke-linecap="round"/><text style="fill:#262626;font-family:Calibri,PingFang SC,Mircrosoft YaHei,Arial;font-size:11.51pt" xml:space="preserve"><tspan style="font-size:9.21pt" x="19.1" y="22.0">1. </tspan><tspan style="font-family:微软雅黑,PingFang SC,Mircrosoft YaHei,Arial;font-size:9.21pt" x="31.1">向</tspan><tspan style="font-size:9.21pt" x="43.1">RabbitMQ</tspan><tspan style="font-family:微软雅黑,PingFang SC,Mircrosoft YaHei,Arial;font-size:9.21pt" x="97.1">提交一个立即授权请求</tspan><tspan style="font-size:9.21pt" x="20.6" y="39.0">2.</tspan><tspan style="font-family:微软雅黑,PingFang SC,Mircrosoft YaHei,Arial;font-size:9.21pt" x="29.6">向</tspan><tspan style="font-size:9.21pt" x="41.6">RabbitMQ</tspan><tspan style="font-family:微软雅黑,PingFang SC,Mircrosoft YaHei,Arial;font-size:9.21pt" x="95.6">提交一个延迟撤权请求</tspan></text></g><g transform="translate(263.707600,506.134200)" id="shape9"><path stroke-width="1.8897600173950195" fill-rule="evenodd" fill="#baddf7" d="M.0,.0L105.8,.0L105.8,51.0L.0,51.0L.0,.0z" stroke="#257fd8" stroke-linecap="round"/><text style="fill:#262626;font-family:微软雅黑,PingFang SC,Mircrosoft YaHei,Arial;font-size:11.51pt" xml:space="preserve"><tspan style="font-size:9.21pt" x="22.9" y="21.5">向用户返回</tspan><tspan style="font-family:Calibri,PingFang SC,Mircrosoft YaHei,Arial;font-size:9.21pt" x="15.4" y="38.5">Approved</tspan><tspan style="font-size:9.21pt" x="66.4">页面</tspan></text></g><g transform="translate(60.780900,39.656200)" id="shape10"><path stroke-width="1.8897600173950195" fill-rule="evenodd" fill="#baddf7" d="M15.7,.0L103.8,.0C124.8,.0,124.8,47.2,103.8,47.2L15.7,47.2C-5.2,47.2,-5.2,.0,15.7,.0L15.7,.0z" stroke="#257fd8" stroke-linecap="round"/><text style="fill:#257fd8;font-family:微软雅黑,PingFang SC,Mircrosoft YaHei,Arial;font-size:11.51pt" xml:space="preserve"><tspan style="font-family:Calibri,PingFang SC,Mircrosoft YaHei,Arial;font-size:9.21pt" x="19.8" y="19.6">WebAPP</tspan><tspan style="font-size:9.21pt" x="63.8">单请求</tspan><tspan style="font-size:9.21pt" x="47.8" y="36.6">开始</tspan></text></g><g transform="translate(73.304900,606.291000)" id="shape11"><path stroke-width="1.8897600173950195" fill-rule="evenodd" fill="#baddf7" d="M15.7,.0L78.7,.0C99.7,.0,99.7,47.2,78.7,47.2L15.7,47.2C-5.2,47.2,-5.2,.0,15.7,.0L15.7,.0z" stroke="#257fd8" stroke-linecap="round"/><text style="fill:#257fd8;font-family:微软雅黑,PingFang SC,Mircrosoft YaHei,Arial;font-size:11.51pt" xml:space="preserve"><tspan style="font-size:9.21pt" x="35.2" y="28.1">结束</tspan></text></g><g transform="translate(538.667900,39.656200)" id="shape12"><path stroke-width="1.8897600173950195" fill-rule="evenodd" fill="#baddf7" d="M15.7,.0L78.7,.0C99.7,.0,99.7,47.2,78.7,47.2L15.7,47.2C-5.2,47.2,-5.2,.0,15.7,.0L15.7,.0z" stroke="#257fd8" stroke-linecap="round"/><text style="fill:#257fd8;font-family:微软雅黑,PingFang SC,Mircrosoft YaHei,Arial;font-size:11.51pt" xml:space="preserve"><tspan style="font-family:Calibri,PingFang SC,Mircrosoft YaHei,Arial;font-size:9.21pt" x="23.7" y="19.1">BlueBird</tspan><tspan style="font-size:9.21pt" x="35.2" y="35.1">开始</tspan></text></g><g transform="translate(532.998600,117.756200)" id="shape13"><path stroke-width="1.8897600173950195" fill-rule="evenodd" fill="#baddf7" d="M.0,.0L105.8,.0L105.8,51.0L.0,51.0L.0,.0z" stroke="#257fd8" stroke-linecap="round"/><text style="fill:#262626;font-family:微软雅黑,PingFang SC,Mircrosoft YaHei,Arial;font-size:11.51pt" xml:space="preserve"><tspan style="font-size:9.21pt" x="25.4" y="21.5">连接</tspan><tspan style="font-family:Calibri,PingFang SC,Mircrosoft YaHei,Arial;font-size:9.21pt" x="49.4">Redis</tspan><tspan style="font-size:9.21pt" x="13.9" y="38.5">连接</tspan><tspan style="font-family:Calibri,PingFang SC,Mircrosoft YaHei,Arial;font-size:9.21pt" x="37.9">RabbitMQ</tspan></text></g><g transform="translate(532.998600,204.065200)" id="shape14"><path stroke-width="1.8897600173950195" fill-rule="evenodd" fill="#baddf7" d="M.0,.0L105.8,.0L105.8,51.0L.0,51.0L.0,.0z" stroke="#257fd8" stroke-linecap="round"/><text style="fill:#262626;font-family:微软雅黑,PingFang SC,Mircrosoft YaHei,Arial;font-size:11.51pt" xml:space="preserve"><tspan style="font-size:9.21pt" x="14.4" y="30.0">消费</tspan><tspan style="font-family:Calibri,PingFang SC,Mircrosoft YaHei,Arial;font-size:9.21pt" x="38.4">Dead</tspan><tspan style="font-size:9.21pt" x="67.4">队列</tspan></text></g><g transform="translate(538.195500,285.976100)" id="shape15"><path stroke-width="1.8897600173950195" fill-rule="evenodd" fill="#baddf7" d="M.0,33.1L47.7,.0L95.4,33.1L47.7,66.1L.0,33.1L.0,33.1z" stroke="#257fd8" stroke-linecap="round"/><text style="fill:#262626;font-family:微软雅黑,PingFang SC,Mircrosoft YaHei,Arial;font-size:11.51pt" xml:space="preserve"><tspan style="font-size:9.21pt" x="11.7" y="37.6">判断消息类型</tspan></text></g><g transform="translate(464.021800,388.968200)" id="shape16"><path stroke-width="1.8897600173950195" fill-rule="evenodd" fill="#baddf7" d="M.0,.0L101.1,.0L101.1,51.0L.0,51.0L.0,.0z" stroke="#257fd8" stroke-linecap="round"/><text style="fill:#262626;font-family:微软雅黑,PingFang SC,Mircrosoft YaHei,Arial;font-size:11.51pt" xml:space="preserve"><tspan style="font-size:9.21pt" x="12.1" y="21.5">向阿里云</tspan><tspan style="font-family:Calibri,PingFang SC,Mircrosoft YaHei,Arial;font-size:9.21pt" x="60.1">API</tspan><tspan style="font-size:9.21pt" x="77.1">请</tspan><tspan style="font-size:9.21pt" x="20.6" y="38.5">求添加规则</tspan></text></g><g transform="translate(605.754800,388.968200)" id="shape17"><path stroke-width="1.8897600173950195" fill-rule="evenodd" fill="#baddf7" d="M.0,.0L101.1,.0L101.1,51.0L.0,51.0L.0,.0z" stroke="#257fd8" stroke-linecap="round"/><text style="fill:#262626;font-family:微软雅黑,PingFang SC,Mircrosoft YaHei,Arial;font-size:11.51pt" xml:space="preserve"><tspan style="font-size:9.21pt" x="12.1" y="21.5">向阿里云</tspan><tspan style="font-family:Calibri,PingFang SC,Mircrosoft YaHei,Arial;font-size:9.21pt" x="60.1">API</tspan><tspan style="font-size:9.21pt" x="77.1">请</tspan><tspan style="font-size:9.21pt" x="20.6" y="38.5">求删除规则</tspan></text></g><g transform="translate(610.951700,476.842200)" id="shape18"><path stroke-width="1.8897600173950195" fill-rule="evenodd" fill="#baddf7" d="M.0,.0L90.7,.0L90.7,51.0L.0,51.0L.0,.0z" stroke="#257fd8" stroke-linecap="round"/><text style="fill:#262626;font-family:微软雅黑,PingFang SC,Mircrosoft YaHei,Arial;font-size:11.51pt" xml:space="preserve"><tspan style="font-size:9.21pt" x="11.9" y="21.5">删除</tspan><tspan style="font-family:Calibri,PingFang SC,Mircrosoft YaHei,Arial;font-size:9.21pt" x="35.9">Redis</tspan><tspan style="font-size:9.21pt" x="66.9">队</tspan><tspan style="font-size:9.21pt" x="15.4" y="38.5">列中的成员</tspan></text></g><g transform="translate(538.667900,610.071000)" id="shape19"><path stroke-width="1.8897600173950195" fill-rule="evenodd" fill="#baddf7" d="M15.7,.0L78.7,.0C99.7,.0,99.7,47.2,78.7,47.2L15.7,47.2C-5.2,47.2,-5.2,.0,15.7,.0L15.7,.0z" stroke="#257fd8" stroke-linecap="round"/><text style="fill:#257fd8;font-family:微软雅黑,PingFang SC,Mircrosoft YaHei,Arial;font-size:11.51pt" xml:space="preserve"><tspan style="font-size:9.21pt" x="35.2" y="28.1">结束</tspan></text></g><g transform="translate(120.549000,177.609000)" id="shape20"><path stroke-width="1.4173200130462646" fill="none" d="M.0,.0L.0,19.8L.0,19.8L.0,32.5" stroke="#000000" stroke-linecap="round"/><path stroke-width="1" fill="#000000" d="M3.6,32.5L.0,39.7L-3.6,32.5L3.6,32.5" stroke-linecap="round" stroke="#000000"/></g><g transform="translate(120.549000,268.318000)" id="shape21"><path stroke-width="1.4173200130462646" fill="none" d="M.0,.0L.0,38.2" stroke="#000000" stroke-linecap="round"/><path stroke-width="1" fill="#000000" d="M3.6,38.2L.0,45.4L-3.6,38.2L3.6,38.2" stroke-linecap="round" stroke="#000000"/></g><g transform="translate(120.550000,418.260000)" id="shape22"><path stroke-width="1.4173200130462646" fill="none" d="M.0,.0L.0,80.7" stroke="#000000" stroke-linecap="round"/><path stroke-width="1" fill="#000000" d="M3.6,80.7L.0,87.9L-3.6,80.7L3.6,80.7" stroke-linecap="round" stroke="#000000"/><rect height="14.0" width="18.0" fill="#ffffff" x="-9.0" y="32.4"/><text style="fill:#f99d4b;font-family:Calibri,PingFang SC,Mircrosoft YaHei,Arial;font-size:11.51pt" xml:space="preserve"><tspan style="font-size:9.21pt" x="-9.0" y="43.4">Yes</tspan></text></g><g transform="translate(202.049000,365.966000)" id="shape23"><path stroke-width="1.4173200130462646" fill="none" d="M.0,.0L19.0,.0L19.0,-222.7L30.9,-222.7" stroke="#000000" stroke-linecap="round"/><path stroke-width="1" fill="#000000" d="M30.9,-226.3L38.0,-222.7L30.9,-219.1L30.9,-226.3" stroke-linecap="round" stroke="#000000"/><rect height="14.0" width="15.0" fill="#ffffff" x="11.5" y="-117.7"/><text style="fill:#f99d4b;font-family:Calibri,PingFang SC,Mircrosoft YaHei,Arial;font-size:11.51pt" xml:space="preserve"><tspan style="font-size:9.21pt" x="11.5" y="-106.7">No</tspan></text></g><g transform="translate(316.621000,177.608000)" id="shape24"><path stroke-width="1.4173200130462646" fill="none" d="M.0,.0L.0,13.2L-0.9,13.2L-0.9,19.3" stroke="#000000" stroke-linecap="round"/><path stroke-width="1" fill="#000000" d="M2.6,19.3L-0.9,26.5L-4.5,19.3L2.6,19.3" stroke-linecap="round" stroke="#000000"/></g><g transform="translate(316.621000,295.425000)" id="shape25"><path stroke-width="1.4173200130462646" fill="none" d="M.0,.0L.0,21.3L.0,21.3L.0,35.4" stroke="#000000" stroke-linecap="round"/><path stroke-width="1" fill="#000000" d="M3.6,35.4L.0,42.5L-3.6,35.4L3.6,35.4" stroke-linecap="round" stroke="#000000"/><rect height="14.0" width="18.0" fill="#ffffff" x="-9.0" y="12.9"/><text style="fill:#f99d4b;font-family:Calibri,PingFang SC,Mircrosoft YaHei,Arial;font-size:11.51pt" xml:space="preserve"><tspan style="font-size:9.21pt" x="-9.0" y="23.9">Yes</tspan></text></g><g transform="translate(316.621000,388.969000)" id="shape26"><path stroke-width="1.4173200130462646" fill="none" d="M.0,.0L.0,21.3L.0,21.3L.0,35.4" stroke="#000000" stroke-linecap="round"/><path stroke-width="1" fill="#000000" d="M3.6,35.4L.0,42.5L-3.6,35.4L3.6,35.4" stroke-linecap="round" stroke="#000000"/></g><g transform="translate(394.101000,249.745000)" id="shape27"><path stroke-width="1.4173200130462646" fill="none" d="M.0,.0L28.7,.0L28.7,152.7L-77.5,152.7L-77.5,174.6" stroke="#000000" stroke-linecap="round"/><path stroke-width="1" fill="#000000" d="M-73.9,174.6L-77.5,181.7L-81.1,174.6L-73.9,174.6" stroke-linecap="round" stroke="#000000"/><rect height="14.0" width="15.0" fill="#ffffff" x="21.2" y="73.7"/><text style="fill:#f99d4b;font-family:Calibri,PingFang SC,Mircrosoft YaHei,Arial;font-size:11.51pt" xml:space="preserve"><tspan style="font-size:9.21pt" x="21.2" y="84.7">No</tspan></text></g><g transform="translate(316.621000,483.457000)" id="shape28"><path stroke-width="1.4173200130462646" fill="none" d="M.0,.0L.0,11.3L.0,11.3L.0,15.5" stroke="#000000" stroke-linecap="round"/><path stroke-width="1" fill="#000000" d="M3.6,15.5L.0,22.7L-3.6,15.5L3.6,15.5" stroke-linecap="round" stroke="#000000"/></g><g transform="translate(120.549000,86.900300)" id="shape29"><path stroke-width="1.4173200130462646" fill="none" d="M.0,.0L.0,19.8L.0,19.8L.0,32.5" stroke="#000000" stroke-linecap="round"/><path stroke-width="1" fill="#000000" d="M3.6,32.5L.0,39.7L-3.6,32.5L3.6,32.5" stroke-linecap="round" stroke="#000000"/></g><g transform="translate(120.549000,557.157000)" id="shape30"><path stroke-width="1.4173200130462646" fill="none" d="M.0,.0L.0,24.6L.0,24.6L.0,42.0" stroke="#000000" stroke-linecap="round"/><path stroke-width="1" fill="#000000" d="M3.6,42.0L.0,49.1L-3.6,42.0L3.6,42.0" stroke-linecap="round" stroke="#000000"/></g><g transform="translate(316.621000,557.157000)" id="shape31"><path stroke-width="1.4173200130462646" fill="none" d="M.0,.0L.0,24.6L-196.1,24.6L-196.1,42.0" stroke="#000000" stroke-linecap="round"/><path stroke-width="1" fill="#000000" d="M-192.5,42.0L-196.1,49.1L-199.6,42.0L-192.5,42.0" stroke-linecap="round" stroke="#000000"/></g><g transform="translate(585.912000,86.900300)" id="shape32"><path stroke-width="1.4173200130462646" fill="none" d="M.0,.0L.0,15.4L.0,15.4L.0,23.7" stroke="#000000" stroke-linecap="round"/><path stroke-width="1" fill="#000000" d="M3.6,23.7L.0,30.9L-3.6,23.7L3.6,23.7" stroke-linecap="round" stroke="#000000"/></g><g transform="translate(585.912000,168.780000)" id="shape33"><path stroke-width="1.4173200130462646" fill="none" d="M.0,.0L.0,17.6L.0,17.6L.0,28.1" stroke="#000000" stroke-linecap="round"/><path stroke-width="1" fill="#000000" d="M3.6,28.1L.0,35.3L-3.6,28.1L3.6,28.1" stroke-linecap="round" stroke="#000000"/></g><g transform="translate(585.912000,255.089000)" id="shape34"><path stroke-width="1.4173200130462646" fill="none" d="M.0,.0L.0,15.4L.0,15.4L.0,23.7" stroke="#000000" stroke-linecap="round"/><path stroke-width="1" fill="#000000" d="M3.6,23.7L.0,30.9L-3.6,23.7L3.6,23.7" stroke-linecap="round" stroke="#000000"/></g><g transform="translate(538.195000,319.047000)" id="shape35"><path stroke-width="1.4173200130462646" fill="none" d="M.0,.0L-23.6,.0L-23.6,62.8" stroke="#000000" stroke-linecap="round"/><path stroke-width="1" fill="#000000" d="M-20.1,62.8L-23.6,69.9L-27.2,62.8L-20.1,62.8" stroke-linecap="round" stroke="#000000"/><rect height="14.0" width="21.0" fill="#ffffff" x="-34.1" y="16.4"/><text style="fill:#f99d4b;font-family:Calibri,PingFang SC,Mircrosoft YaHei,Arial;font-size:11.51pt" xml:space="preserve"><tspan style="font-size:9.21pt" x="-34.1" y="27.4">add</tspan></text></g><g transform="translate(633.628000,319.047000)" id="shape36"><path stroke-width="1.4173200130462646" fill="none" d="M.0,.0L22.7,.0L22.7,62.8" stroke="#000000" stroke-linecap="round"/><path stroke-width="1" fill="#000000" d="M26.2,62.8L22.7,69.9L19.1,62.8L26.2,62.8" stroke-linecap="round" stroke="#000000"/><rect height="14.0" width="18.0" fill="#ffffff" x="13.7" y="16.4"/><text style="fill:#f99d4b;font-family:Calibri,PingFang SC,Mircrosoft YaHei,Arial;font-size:11.51pt" xml:space="preserve"><tspan style="font-size:9.21pt" x="13.7" y="27.4">del</tspan></text></g><g transform="translate(656.306000,439.992000)" id="shape37"><path stroke-width="1.4173200130462646" fill="none" d="M.0,.0L.0,18.4L.0,18.4L.0,29.7" stroke="#000000" stroke-linecap="round"/><path stroke-width="1" fill="#000000" d="M3.6,29.7L.0,36.9L-3.6,29.7L3.6,29.7" stroke-linecap="round" stroke="#000000"/></g><g transform="translate(514.573000,439.992000)" id="shape38"><path stroke-width="1.4173200130462646" fill="none" d="M.0,.0L.0,129.3L71.3,129.3L71.3,162.9" stroke="#000000" stroke-linecap="round"/><path stroke-width="1" fill="#000000" d="M74.9,162.9L71.3,170.1L67.8,162.9L74.9,162.9" stroke-linecap="round" stroke="#000000"/></g><g transform="translate(656.306000,527.866000)" id="shape39"><path stroke-width="1.4173200130462646" fill="none" d="M.0,.0L.0,41.1L-70.4,41.1L-70.4,75.1" stroke="#000000" stroke-linecap="round"/><path stroke-width="1" fill="#000000" d="M-66.8,75.1L-70.4,82.2L-74.0,75.1L-66.8,75.1" stroke-linecap="round" stroke="#000000"/></g></g></svg>